<?xml version="1.0" encoding="UTF-8"?>
<svg width="16px" height="16px" viewBox="0 0 16 16" version="1.1" xmlns="http://www.w3.org/2000/svg" xmlns:xlink="http://www.w3.org/1999/xlink">
    <!-- Generator: Sketch 50.2 (55047) - http://www.bohemiancoding.com/sketch -->
    <title>facebook-official</title>
    <desc>Created with Sketch.</desc>
    <defs></defs>
    <g id="Page-1" stroke="none" stroke-width="1" fill="none" fill-rule="evenodd">
        <g id="facebook-official" fill="#FFFFFF" fill-rule="nonzero">
            <path d="M15.1145833,0 C15.3576389,0 15.5659722,0.0868055556 15.7395833,0.260416667 C15.9131944,0.434027778 16,0.642361111 16,0.885416667 L16,15.1145833 C16,15.3576389 15.9131944,15.5659722 15.7395833,15.7395833 C15.5659722,15.9131944 15.3576389,16 15.1145833,16 L11.0416667,16 L11.0416667,9.80208333 L13.1145833,9.80208333 L13.4270833,7.38541667 L11.0416667,7.38541667 L11.0416667,5.84375 C11.0416667,5.45486111 11.1232639,5.16319444 11.2864583,4.96875 C11.4496528,4.77430556 11.7673611,4.67708333 12.2395833,4.67708333 L13.5104167,4.66666667 L13.5104167,2.51041667 C13.0729167,2.44791667 12.4548611,2.41666667 11.65625,2.41666667 C10.7118056,2.41666667 9.95659722,2.69444444 9.390625,3.25 C8.82465278,3.80555556 8.54166667,4.59027778 8.54166667,5.60416667 L8.54166667,7.38541667 L6.45833333,7.38541667 L6.45833333,9.80208333 L8.54166667,9.80208333 L8.54166667,16 L0.885416667,16 C0.642361111,16 0.434027778,15.9131944 0.260416667,15.7395833 C0.0868055556,15.5659722 0,15.3576389 0,15.1145833 L0,0.885416667 C0,0.642361111 0.0868055556,0.434027778 0.260416667,0.260416667 C0.434027778,0.0868055556 0.642361111,0 0.885416667,0 L15.1145833,0 Z" id="Shape"></path>
        </g>
    </g>
</svg>