<?xml version="1.0" encoding="UTF-8"?>
<svg width="30px" height="27px" viewBox="0 0 30 27" version="1.1" xmlns="http://www.w3.org/2000/svg" xmlns:xlink="http://www.w3.org/1999/xlink">
    <!-- Generator: Sketch 46.2 (44496) - http://www.bohemiancoding.com/sketch -->
    <desc>Created with Sketch.</desc>
    <defs></defs>
    <g id="Page1" stroke="none" stroke-width="1" fill="none" fill-rule="evenodd">
        <g id="7mind_logo-2017_hepta-2" fill-rule="nonzero" fill="#FFFFFF">
            <path d="M27.9403396,7.26934762 L21.3024039,1.04230957 C19.9913562,-0.189208004 18.1195834,0.0142516114 18.1195834,0.0142516114 L8.67802254,1.04230957 C6.80826673,1.24576919 5.79170047,2.73063312 5.79170047,2.73063312 L0.648359275,10.2429882 C-0.368206986,11.7278521 0.231849488,13.3731361 0.231849488,13.3731361 L3.2664208,21.7100895 C3.86647727,23.3592862 5.63336625,23.92956 5.63336625,23.92956 L9.55239054,25.1962917 L11.4483673,25.8086269 L16.8196291,12.9388281 L8.65079308,12.9388281 L8.65079308,10.6499074 L20.4502229,10.6499074 L13.8475847,26.5892076 L14.5535335,26.8171215 C16.3204225,27.3883735 17.9219177,26.4512854 17.9219177,26.4512854 L26.0241929,21.7120458 C27.6256881,20.7749578 27.8566342,19.0367475 27.8566342,19.0367475 L29.0285092,10.2400536 C29.2604638,8.50184337 27.9463906,7.26934762 27.9463906,7.26934762" id="Shape"></path>
        </g>
    </g>
</svg>